<svg width="40" height="40" viewBox="0 0 40 40" fill="none" xmlns="http://www.w3.org/2000/svg">
<path fill-rule="evenodd" clip-rule="evenodd" d="M20 40C8.954 40 0 31.046 0 20C0 8.954 8.954 0 20 0C31.046 0 40 8.954 40 20C40 31.046 31.046 40 20 40ZM21.5 13.333H25.666V10H21.5C20.9527 9.99987 20.4108 10.1076 19.9052 10.3169C19.3996 10.5263 18.9402 10.8332 18.5532 11.2202C18.1662 11.6072 17.8593 12.0666 17.6499 12.5722C17.4406 13.0778 17.3329 13.6197 17.333 14.167V16.667H14V20H17.333V30H20.667V20H24.833L25.667 16.667H20.667V14.167C20.667 13.706 21.039 13.333 21.5 13.333Z" fill="white"/>
</svg>
