<svg width="40" height="40" viewBox="0 0 40 40" fill="none" xmlns="http://www.w3.org/2000/svg">
<path fill-rule="evenodd" clip-rule="evenodd" d="M20 0C31.046 0 40 8.954 40 20C40 31.046 31.046 40 20 40C8.954 40 0 31.046 0 20C0 8.954 8.954 0 20 0ZM25.367 11H14.633C12.63 11 11 12.586 11 14.536V24.464C11 26.414 12.63 28 14.633 28H25.367C27.37 28 29 26.414 29 24.464V14.536C29 12.586 27.37 11 25.367 11ZM20 14.747C22.693 14.747 24.884 16.879 24.884 19.5C24.884 22.121 22.693 24.253 20 24.253C17.307 24.253 15.116 22.121 15.116 19.5C15.116 16.879 17.307 14.747 20 14.747ZM20 16.292C18.182 16.292 16.704 17.732 16.704 19.5C16.704 21.268 18.182 22.707 20 22.707C21.818 22.707 23.296 21.268 23.296 19.5C23.296 17.732 21.818 16.292 20 16.292ZM24.859 13.777C25.317 13.777 25.687 14.137 25.687 14.583C25.687 15.028 25.317 15.389 24.859 15.389C24.7517 15.3905 24.6452 15.3708 24.5455 15.331C24.4458 15.2913 24.3549 15.2324 24.2781 15.1575C24.2012 15.0827 24.1398 14.9934 24.0974 14.8948C24.055 14.7963 24.0324 14.6903 24.031 14.583C24.031 14.137 24.402 13.777 24.859 13.777Z" fill="white"/>
</svg>
