<svg width="40" height="40" viewBox="0 0 40 40" fill="none" xmlns="http://www.w3.org/2000/svg">
<path fill-rule="evenodd" clip-rule="evenodd" d="M20 40C8.954 40 0 31.046 0 20C0 8.954 8.954 0 20 0C31.046 0 40 8.954 40 20C40 31.046 31.046 40 20 40ZM30.525 14.989C30.164 15.169 29.169 15.531 28.265 15.621C28.898 15.26 29.712 14.266 29.983 13.452C29.441 13.814 28.085 14.356 27.452 14.356C26.729 13.633 25.644 13 24.559 13C22.299 13 20.672 14.898 20.672 17.158C20.672 17.429 20.672 17.791 20.762 18.062C17.78 17.972 14.254 16.345 12.266 13.723C11 15.803 12.085 18.333 13.531 19.237C13.079 19.237 12.175 19.147 11.814 18.785C11.814 20.232 12.446 22.04 14.887 22.763C14.435 22.853 13.531 22.853 13.169 22.763C13.259 23.938 14.977 25.475 16.785 25.475C16.153 26.198 13.712 27.554 11 27.192C12.898 28.277 14.977 29 17.328 29C23.836 29 29.169 23.757 28.898 17.249V17.068C29.441 16.616 29.983 15.893 30.525 14.988V14.989Z" fill="white"/>
</svg>
