<svg width="40" height="40" viewBox="0 0 40 40" fill="none" xmlns="http://www.w3.org/2000/svg">
<path fill-rule="evenodd" clip-rule="evenodd" d="M20 40C8.954 40 0 31.046 0 20C0 8.954 8.954 0 20 0C31.046 0 40 8.954 40 20C40 31.046 31.046 40 20 40ZM29.948 15.193C29.9321 15.0807 29.9053 14.9701 29.868 14.863C29.7384 14.478 29.4914 14.1433 29.1617 13.906C28.832 13.6687 28.4362 13.5407 28.03 13.54H28.163C28.163 13.54 24.723 13.02 20.149 13C15.574 13.021 12.135 13.54 12.135 13.54H12.268C11.8033 13.5405 11.3542 13.7076 11.0022 14.0109C10.6501 14.3141 10.4184 14.7335 10.349 15.193C10.225 16.085 10.019 17.866 10 20C10.018 22.134 10.225 23.913 10.35 24.806C10.3663 24.9182 10.3927 25.0286 10.429 25.136C10.5583 25.5214 10.8054 25.8564 11.1353 26.0938C11.4653 26.3312 11.8615 26.4589 12.268 26.459H12.135C12.135 26.459 15.574 26.979 20.149 27C24.724 26.978 28.163 26.46 28.163 26.46H28.03C28.4947 26.4594 28.9438 26.2922 29.2957 25.9887C29.6477 25.6852 29.8791 25.2656 29.948 24.806C30.1659 23.213 30.2828 21.6078 30.298 20C30.2823 18.3919 30.1654 16.7864 29.948 15.193ZM23.155 20.433L19.057 23.411C18.9834 23.4646 18.8963 23.4967 18.8056 23.5038C18.7148 23.5109 18.6238 23.4928 18.5427 23.4513C18.4616 23.4099 18.3936 23.3469 18.3462 23.2691C18.2987 23.1914 18.2738 23.1021 18.274 23.011V17.06C18.2741 16.9691 18.2993 16.88 18.3468 16.8025C18.3943 16.725 18.4623 16.6621 18.5433 16.6207C18.6242 16.5794 18.715 16.5612 18.8057 16.5681C18.8963 16.575 18.9833 16.6068 19.057 16.66L23.155 19.636C23.2178 19.6819 23.2689 19.7419 23.3041 19.8112C23.3394 19.8806 23.3577 19.9572 23.3577 20.035C23.3577 20.1128 23.3394 20.1894 23.3041 20.2588C23.2689 20.3281 23.2178 20.3881 23.155 20.434V20.433Z" fill="white"/>
</svg>
